
      <svg data-logo="logo" xmlns="http://www.w3.org/2000/svg" viewBox="0 0 244 42">
        <g id="logogram" transform="translate(0, 1) rotate(0) "><path d="M3.30396 17.1323C3.71066 15.3021 5.33391 14 7.20871 14H12L8.00002 32H4.98649C2.4275 32 0.526616 29.6303 1.08174 27.1323L3.30396 17.1323Z" fill="#FFC228"/><path d="M39.2852 8H21.2861L20.6777 10.8384C20.2824 12.6825 18.6526 14 16.7666 14H12L14.3216 3.16214C14.7167 1.31774 16.3467 0 18.2329 0H36.0513C38.5978 0 40.496 2.34793 39.9626 4.83792L39.2852 8Z" fill="#FB315D"/><path d="M30.9627 36.8379C30.5676 38.6823 28.9377 40 27.0514 40H11.233C8.68648 40 6.78828 37.6521 7.32172 35.1621L7.99914 32H31.9991L30.9627 36.8379Z" fill="#07E0B0"/><path d="M38.6269 17C41.2292 17 43.1386 19.4456 42.5075 21.9701L40.7575 28.9701C40.3123 30.7508 38.7124 32 36.8769 32H32L33.75 25H14L15.0364 20.1621C15.4316 18.3177 17.0615 17 18.9477 17H38.6269Z" fill="#6F3BFD"/></g>
        <g id="logotype" transform="translate(48, 8)"><path fill="#111111" d="M28.94 26L7.03 26L7.03 1.15L14.03 1.15L14.03 20.82L28.94 20.82L28.94 26ZM38.08 5.70L31.36 5.70L31.36 0.80L38.08 0.80L38.08 5.70ZM38.08 26L31.29 26L31.29 8.01L38.08 8.01L38.08 26ZM55.89 26L48.86 26L39.86 8.01L46.93 8.01L52.46 19.84L57.96 8.01L64.89 8.01L55.89 26ZM76.93 26.42L76.93 26.42Q73.32 26.42 70.49 25.34Q67.65 24.25 66.02 22.15Q64.40 20.05 64.40 17.00L64.40 17.00Q64.40 13.92 65.94 11.82Q67.48 9.72 70.26 8.66Q73.04 7.59 76.72 7.59L76.72 7.59Q80.60 7.59 83.30 8.80Q85.99 10.00 87.30 12.40Q88.62 14.80 88.27 18.34L88.27 18.34L71.22 18.34Q71.40 19.80 72.78 20.82Q74.16 21.84 76.93 21.84L76.93 21.84Q79.38 21.84 80.44 21.27Q81.51 20.71 82 19.80L82 19.80L88.20 20.47Q87.43 23.38 84.38 24.90Q81.34 26.42 76.93 26.42ZM76.79 11.82L76.79 11.82Q74.16 11.82 72.85 12.72Q71.54 13.61 71.26 14.87L71.26 14.87L82.07 14.87Q81.86 13.40 80.55 12.61Q79.24 11.82 76.79 11.82ZM104.79 26L91.38 26L91.38 1.15L104.79 1.15Q109.72 1.15 112.96 2.76Q116.20 4.37 117.81 7.19Q119.42 10.00 119.42 13.61L119.42 13.61Q119.42 17.18 117.81 19.98Q116.20 22.78 112.96 24.39Q109.72 26 104.79 26L104.79 26ZM98.38 6.33L98.38 20.82L104.30 20.82Q108.39 20.82 110.37 19Q112.35 17.18 112.35 14.03L112.35 14.03L112.35 13.12Q112.35 9.90 110.37 8.11Q108.39 6.33 104.30 6.33L104.30 6.33L98.38 6.33ZM133.77 26.42L133.77 26.42Q131.35 26.42 129.15 25.81Q126.94 25.20 125.21 24.00Q123.48 22.81 122.48 21.06Q121.48 19.31 121.48 17.00L121.48 17.00Q121.48 13.92 123.11 11.82Q124.74 9.72 127.54 8.66Q130.34 7.59 133.77 7.59L133.77 7.59Q137.20 7.59 139.98 8.66Q142.76 9.72 144.39 11.82Q146.02 13.92 146.02 17.00L146.02 17.00Q146.02 19.31 145.02 21.06Q144.02 22.81 142.29 24.00Q140.56 25.20 138.35 25.81Q136.15 26.42 133.77 26.42ZM133.77 21.80L133.77 21.80Q136.22 21.80 137.70 20.52Q139.19 19.24 139.19 17.18L139.19 17.18L139.19 16.83Q139.19 14.73 137.70 13.47Q136.22 12.21 133.77 12.21L133.77 12.21Q131.32 12.21 129.81 13.47Q128.31 14.73 128.31 16.83L128.31 16.83L128.31 17.18Q128.31 19.24 129.81 20.52Q131.32 21.80 133.77 21.80ZM160.09 26.42L160.09 26.42Q157.74 26.42 155.57 25.81Q153.40 25.20 151.67 24.00Q149.94 22.81 148.92 21.06Q147.91 19.31 147.91 17.00L147.91 17.00Q147.91 13.92 149.55 11.82Q151.20 9.72 153.98 8.66Q156.76 7.59 160.09 7.59L160.09 7.59Q162.75 7.59 165.11 8.31Q167.47 9.02 169.13 10.55Q170.80 12.07 171.32 14.48L171.32 14.48L165.02 15.15Q164.50 13.82 163.25 13.01Q162.01 12.21 160.05 12.21L160.05 12.21Q157.60 12.21 156.17 13.49Q154.73 14.76 154.73 16.83L154.73 16.83L154.73 17.18Q154.73 19.21 156.17 20.50Q157.60 21.80 160.05 21.80L160.05 21.80Q162.01 21.80 163.25 20.99Q164.50 20.19 165.02 18.86L165.02 18.86L171.32 19.52Q170.80 21.94 169.13 23.46Q167.47 24.98 165.11 25.70Q162.75 26.42 160.09 26.42ZM183.85 26.42L183.85 26.42Q179.79 26.42 176.80 25.34Q173.81 24.25 172.69 21.98L172.69 21.98L178.32 19.95Q178.60 20.40 179.11 20.91Q179.62 21.41 180.74 21.77Q181.86 22.11 183.99 22.11L183.99 22.11Q186.27 22.11 187.65 21.84Q189.03 21.55 189.03 20.82L189.03 20.82Q189.03 20.36 188.63 20.10Q188.23 19.84 187.31 19.73L187.31 19.73L180.21 18.86Q178.29 18.61 176.73 18.05Q175.17 17.49 174.28 16.45Q173.39 15.39 173.39 13.68L173.39 13.68Q173.39 11.51 174.73 10.16Q176.08 8.81 178.48 8.20Q180.88 7.59 183.96 7.59L183.96 7.59Q188.02 7.59 190.78 8.67Q193.55 9.76 194.81 12.17L194.81 12.17L189.35 13.71Q188.82 12.91 187.68 12.40Q186.55 11.89 183.96 11.89L183.96 11.89Q181.72 11.89 180.59 12.23Q179.48 12.56 179.48 13.12L179.48 13.12Q179.48 13.47 179.86 13.75Q180.25 14.03 181.65 14.20L181.65 14.20L188.23 15.04Q190.36 15.29 191.90 15.81Q193.44 16.34 194.28 17.35Q195.12 18.37 195.12 20.16L195.12 20.16Q195.12 22.36 193.65 23.74Q192.18 25.13 189.64 25.77Q187.11 26.42 183.85 26.42Z"/></g>
        
      </svg>
    